<?xml version="1.0" encoding="UTF-8"?>
<svg id="Capa_4" data-name="Capa 4" xmlns="http://www.w3.org/2000/svg" viewBox="0 0 799.02 432.57">
  <defs>
    <style>
      .cls-1 {
        fill: #324597;
      }

      .cls-2 {
        fill: #d9841b;
      }
    </style>
  </defs>
  <path class="cls-1" d="M296.6,132.79c4.56,0,8.25,3.7,8.25,8.25v114.33h80.33l-100.84-198.42-100.84,198.42h72.4v-71.57c0-4.56,3.69-8.25,8.25-8.25h0c4.56,0,8.25,3.7,8.25,8.25v71.57h15.94v-114.33c0-4.56,3.7-8.25,8.25-8.25Z"/>
  <path class="cls-1" d="M173.33,153.34c-17.93-13.77-42.91-16.65-54.11-19.85-3.2-.96-6.4-2.56-6.4-6.72,0-3.52,2.56-6.08,9.93-6.08,9.6,0,32.34,4.16,57.31,17.61v-63.72c-9.29-4.48-21.13-8.32-33.62-10.89v-25.33h-24.89v12.97c0,4.56-3.7,8.25-8.25,8.25s-8.25-3.7-8.25-8.25v-12.97h-26.49v26.3c-29.14,8.97-45.79,30.74-45.79,59.88,0,17.29,5.76,29.78,16.65,39.7,20.81,18.89,52.19,22.41,57.95,23.69,4.8.96,6.08,3.52,6.08,6.08,0,3.2-1.6,7.04-10.25,7.04-11.53,0-39.38-7.04-65.32-25.29v69.16c10.89,6.08,25.61,10.57,40.66,13.45v23.76h26.49v-12.08c0-4.56,3.7-8.25,8.25-8.25s8.25,3.7,8.25,8.25v12.08h24.89v-25.37c30.42-9.6,47.39-32.34,47.39-60.52,0-18.57-7.36-32.98-20.49-42.91Z"/>
  <path class="cls-1" d="M393.92,65.11h72.01c45.73,0,96.97,13.14,96.97,67.54,0,48.88-41,68.59-88.04,68.59h-2.63v54.14h-78.32V65.11ZM474.34,152.88c13.4,0,19.71-7.1,19.71-16.03s-6.57-16.03-19.71-16.03h-2.1v32.06h2.1Z"/>
  <g>
    <polygon class="cls-2" points="746.8 303.09 746.8 303.09 746.8 303.09 746.8 303.09"/>
    <path class="cls-2" d="M631.94,204.11h-.93c-17.11,0-30.98-13.87-30.98-30.98s13.87-30.98,30.98-30.98h32.53c4.27,0,7.74-3.47,7.74-7.74s-3.47-7.74-7.74-7.74h-3.1c-2.57,0-4.65-2.08-4.65-4.65s2.08-4.65,4.65-4.65h3.1c9.41,0,17.04,7.62,17.04,17.04s-7.62,17.04-17.04,17.04h-32.52c-11.98,0-21.68,9.7-21.68,21.68s9.7,21.68,21.68,21.68h.16c1.08-8.55,7.54-15.26,15.73-20.13,8.81-5.25,20.63-9.05,33.53-11.34,2.67-10.41,12.11-18.09,23.35-18.09,9.04,0,16.92,4.99,21.03,12.33,1.9-.11,3.8-.17,5.72-.17,12.59,0,24.63,2.38,35.64,6.68.05-1.37.08-2.74.08-4.13,0-56.54-41.59-98.12-98.12-98.12s-98.67,41.59-98.67,98.12,41.59,98.67,98.94,98.67c1.48,0,2.94-.04,4.4-.09-5.03-10.7-8.04-21.57-8.76-29.52-16.99-4.49-28.8-13.33-32.1-24.91Z"/>
    <path class="cls-2" d="M730.54,166.71c-2.15,0-4.28.08-6.39.23-3.17.22-5.84-1.63-7.08-4.13-2.42-4.9-7.47-8.26-13.29-8.26-7.19,0-13.18,5.11-14.53,11.89-.56,2.76-2.72,5.3-5.93,5.83-12.77,2.14-23.89,5.76-31.67,10.39-6.55,3.91-10.04,8.07-11.04,12.15h21.37c2.57,0,4.65,2.08,4.65,4.65s-2.08,4.65-4.65,4.65h-20.06c3.18,6.51,11.25,12.69,25.82,16.26h0c3.09.75,5.3,3.44,5.47,6.59.4,7.51,3.7,19.42,9.52,30.73,12.66-1.67,24.36-5.53,34.75-11.25,2.85-2.6,6.31-4.85,10.41-6.66,20.38-15.06,34.07-38.21,37.5-65.96-10.64-4.56-22.42-7.12-34.87-7.12ZM708.66,168.93c-3.41.94-4.01,1.54-4.95,4.95-.09.32-.37.53-.7.53s-.61-.22-.7-.53c-.94-3.41-1.54-4.01-4.95-4.95-.32-.09-.53-.37-.53-.7s.22-.61.53-.7c3.41-.94,4.01-1.54,4.95-4.95.09-.32.37-.53.7-.53s.61.22.7.53c.94,3.41,1.54,4.01,4.95,4.95.32.09.53.37.53.7s-.22.61-.53.7Z"/>
  </g>
  <g>
    <path class="cls-2" d="M324.96,326c-1.59,0-3.21-.14-4.84-.42-1.63-.28-3.17-.68-4.62-1.2-1.45-.52-2.71-1.15-3.78-1.89l2.5-7.45c.96.63,2.05,1.18,3.25,1.64,1.2.46,2.46.82,3.75,1.06,1.3.24,2.5.36,3.62.36,1.59,0,2.84-.31,3.72-.95.89-.63,1.34-1.59,1.34-2.89,0-.74-.13-1.35-.39-1.84-.26-.48-.66-.89-1.2-1.22-.54-.33-1.18-.59-1.92-.78l-5.28-1.33c-3-.7-5.23-1.98-6.67-3.84-1.45-1.85-2.17-4.21-2.17-7.06,0-2.52.59-4.74,1.78-6.65,1.19-1.91,2.84-3.38,4.98-4.42,2.13-1.04,4.59-1.56,7.37-1.56,1.48,0,2.95.14,4.39.42,1.45.28,2.78.69,4,1.22s2.26,1.2,3.11,1.97l-2.45,7.17c-1.08-.93-2.41-1.64-4-2.14-1.59-.5-3.11-.75-4.56-.75-1.08,0-2,.17-2.78.5-.78.33-1.39.8-1.83,1.39-.45.59-.67,1.33-.67,2.22,0,1.04.31,1.88.92,2.53.61.65,1.47,1.12,2.59,1.42l5.23,1.28c2.97.67,5.19,1.89,6.67,3.67,1.48,1.78,2.22,4.08,2.22,6.89,0,2.6-.59,4.84-1.78,6.73-1.19,1.89-2.86,3.35-5,4.37-2.15,1.02-4.65,1.53-7.51,1.53Z"/>
    <path class="cls-2" d="M343.48,292.8v-8.45h9.51v8.45h-9.51ZM343.59,325.39v-27.69h9.29v27.69h-9.29Z"/>
    <path class="cls-2" d="M367.78,326c-1.45,0-2.85-.12-4.2-.36-1.35-.24-2.58-.56-3.67-.97-1.09-.41-2.03-.91-2.81-1.5l2-5.89c.85.52,1.73.94,2.64,1.28.91.33,1.81.59,2.7.78s1.7.28,2.45.28c1.19,0,2.12-.2,2.81-.61.69-.41,1.03-1.04,1.03-1.89,0-.67-.19-1.18-.58-1.53-.39-.35-1.03-.6-1.92-.75l-3.62-.5c-2.34-.37-4.11-1.29-5.34-2.75-1.22-1.46-1.84-3.21-1.84-5.25,0-1.82.44-3.41,1.33-4.78.89-1.37,2.2-2.46,3.92-3.25,1.72-.8,3.83-1.2,6.31-1.2,1.26,0,2.46.11,3.59.33,1.13.22,2.17.54,3.11.95.95.41,1.77.91,2.47,1.5l-2.11,5.78c-.59-.41-1.29-.78-2.09-1.11s-1.61-.59-2.45-.78c-.83-.18-1.64-.28-2.42-.28-1.08,0-1.94.21-2.59.64-.65.43-.97,1.01-.97,1.75,0,.63.2,1.14.61,1.53s1.08.64,2,.75l3.39.56c2.45.41,4.27,1.33,5.48,2.78,1.2,1.45,1.81,3.28,1.81,5.51,0,1.82-.45,3.41-1.36,4.78-.91,1.37-2.19,2.42-3.84,3.14-1.65.72-3.61,1.08-5.87,1.08Z"/>
    <path class="cls-2" d="M394.81,326c-3.63,0-6.3-.9-8.01-2.7-1.71-1.8-2.56-4.48-2.56-8.04v-10.9h-4.17v-6.67h4.45v-7.73h8.95v7.73h6.9v6.67h-6.9v10.73c0,1.3.28,2.21.83,2.72.56.52,1.32.78,2.28.78.52,0,1.07-.06,1.67-.19.59-.13,1.08-.27,1.45-.42l1.22,6.73c-.93.44-1.89.77-2.89.97-1,.2-2.08.31-3.23.31Z"/>
    <path class="cls-2" d="M417.16,326c-3.08,0-5.65-.57-7.73-1.7-2.08-1.13-3.64-2.77-4.7-4.92-1.06-2.15-1.59-4.74-1.59-7.78s.49-5.52,1.47-7.67c.98-2.15,2.42-3.83,4.31-5.03,1.89-1.2,4.17-1.81,6.84-1.81,2.37,0,4.41.53,6.12,1.59,1.71,1.06,3.02,2.61,3.95,4.67.93,2.06,1.39,4.59,1.39,7.59v2.95h-16.35v-5.06h9.29l-.72.89c0-2.45-.31-4.13-.92-5.06-.61-.93-1.49-1.39-2.64-1.39-.89,0-1.63.25-2.22.75-.59.5-1.05,1.28-1.36,2.34-.32,1.06-.47,2.46-.47,4.2v2.56c0,1.41.18,2.56.56,3.45.37.89.97,1.55,1.81,1.97.83.43,1.97.64,3.42.64,1.15,0,2.33-.18,3.53-.53,1.2-.35,2.27-.84,3.2-1.47l2.34,6.01c-1.52,1.04-3.07,1.77-4.64,2.2-1.58.43-3.2.64-4.87.64Z"/>
    <path class="cls-2" d="M431.56,325.39v-27.69h8.62v5.06h-.11c.45-1.19,1.07-2.2,1.86-3.03.8-.83,1.71-1.48,2.75-1.95,1.04-.46,2.19-.7,3.45-.7,1.82,0,3.32.46,4.5,1.39,1.19.93,2,2.22,2.45,3.89h-.17c.52-1.56,1.48-2.83,2.89-3.81,1.41-.98,3.13-1.47,5.17-1.47,1.63,0,3.01.38,4.14,1.14,1.13.76,1.99,1.89,2.59,3.39.59,1.5.89,3.38.89,5.64v18.13h-9.29v-17.35c0-1.34-.19-2.26-.58-2.78s-.97-.78-1.75-.78c-.63,0-1.2.17-1.7.5-.5.33-.9.8-1.2,1.39-.3.59-.45,1.28-.45,2.06v16.96h-9.18v-17.35c0-1.3-.21-2.22-.64-2.75-.43-.54-.99-.81-1.7-.81-.67,0-1.24.18-1.72.53-.48.35-.87.83-1.17,1.42-.3.59-.44,1.26-.44,2v16.96h-9.23Z"/>
    <path class="cls-2" d="M483.77,326c-1.45,0-2.84-.4-4.17-1.2-1.33-.8-2.42-1.88-3.25-3.25-.83-1.37-1.25-2.95-1.25-4.73s.48-3.27,1.45-4.48c.96-1.2,2.41-2.11,4.34-2.73,1.93-.61,4.28-.92,7.06-.92h3.23v4.73h-1.84c-.93,0-1.72.07-2.39.2s-1.22.32-1.67.56c-.45.24-.77.58-.97,1-.2.43-.31.94-.31,1.53,0,.85.28,1.56.83,2.11s1.26.83,2.11.83c.56,0,1.08-.19,1.58-.56.5-.37.91-.9,1.22-1.58.31-.69.47-1.53.47-2.53v-7.62c0-1.26-.32-2.15-.97-2.67-.65-.52-1.64-.78-2.98-.78-1.19,0-2.46.18-3.81.53-1.35.35-2.7.95-4.03,1.81l-2.45-6.12c1.19-.67,2.42-1.22,3.7-1.67,1.28-.45,2.6-.79,3.98-1.03,1.37-.24,2.78-.36,4.23-.36,2.41,0,4.44.43,6.09,1.28,1.65.85,2.92,2.13,3.81,3.84.89,1.71,1.33,3.86,1.33,6.45v16.74h-8.12v-5.39h-.11c-.41,1.26-.91,2.35-1.5,3.25-.59.91-1.34,1.59-2.22,2.06-.89.46-2.02.7-3.39.7Z"/>
    <path class="cls-2" d="M527.65,326c-2.15,0-3.96-.59-5.42-1.78-1.47-1.19-2.58-2.85-3.34-5-.76-2.15-1.14-4.71-1.14-7.67s.38-5.47,1.14-7.62c.76-2.15,1.87-3.83,3.34-5.03,1.46-1.2,3.23-1.81,5.31-1.81,1.93,0,3.48.48,4.64,1.45,1.17.96,1.99,2.28,2.47,3.95h-.28v-16.29h9.29v39.2h-8.73v-5.06h.17c-.56,1.85-1.46,3.26-2.7,4.23-1.24.96-2.83,1.45-4.75,1.45ZM530.76,319.05c1.33,0,2.29-.64,2.86-1.92.57-1.28.86-3.14.86-5.59s-.29-4.35-.86-5.59c-.58-1.24-1.53-1.86-2.86-1.86s-2.29.62-2.86,1.86c-.58,1.24-.86,3.11-.86,5.59s.29,4.31.86,5.59c.57,1.28,1.53,1.92,2.86,1.92Z"/>
    <path class="cls-2" d="M562.07,326c-3.08,0-5.65-.57-7.73-1.7-2.08-1.13-3.64-2.77-4.7-4.92-1.06-2.15-1.59-4.74-1.59-7.78s.49-5.52,1.47-7.67c.98-2.15,2.42-3.83,4.31-5.03,1.89-1.2,4.17-1.81,6.84-1.81,2.37,0,4.41.53,6.12,1.59,1.71,1.06,3.02,2.61,3.95,4.67.93,2.06,1.39,4.59,1.39,7.59v2.95h-16.35v-5.06h9.29l-.72.89c0-2.45-.31-4.13-.92-5.06-.61-.93-1.49-1.39-2.64-1.39-.89,0-1.63.25-2.22.75-.59.5-1.05,1.28-1.36,2.34-.32,1.06-.47,2.46-.47,4.2v2.56c0,1.41.18,2.56.56,3.45s.97,1.55,1.81,1.97c.83.43,1.97.64,3.42.64,1.15,0,2.33-.18,3.53-.53,1.2-.35,2.27-.84,3.2-1.47l2.34,6.01c-1.52,1.04-3.07,1.77-4.64,2.2-1.58.43-3.2.64-4.87.64Z"/>
    <path class="cls-2" d="M587.31,325.39l14.96-39.2h7.9l14.96,39.2h-9.68l-3.45-10.79,3.34,3h-18.41l3.34-3-3.45,10.79h-9.51ZM606.05,296.08l-5.23,16.24-.89-2.22h12.34l-.89,2.22-5.17-16.24h-.17Z"/>
    <path class="cls-2" d="M636.47,326c-3.19,0-5.55-.84-7.09-2.53-1.54-1.69-2.31-4.4-2.31-8.15v-29.14h9.29v28.8c0,.82.08,1.49.25,2.03.17.54.44.95.81,1.22.37.28.85.42,1.45.42.41,0,.8-.03,1.17-.08.37-.06.65-.12.83-.19l.39,6.84c-.74.26-1.5.45-2.28.58-.78.13-1.61.19-2.5.19Z"/>
    <path class="cls-2" d="M657.43,326c-3.08,0-5.65-.57-7.73-1.7-2.08-1.13-3.64-2.77-4.7-4.92-1.06-2.15-1.59-4.74-1.59-7.78s.49-5.52,1.47-7.67c.98-2.15,2.42-3.83,4.31-5.03,1.89-1.2,4.17-1.81,6.84-1.81,2.37,0,4.41.53,6.12,1.59,1.71,1.06,3.02,2.61,3.95,4.67.93,2.06,1.39,4.59,1.39,7.59v2.95h-16.35v-5.06h9.29l-.72.89c0-2.45-.31-4.13-.92-5.06-.61-.93-1.49-1.39-2.64-1.39-.89,0-1.63.25-2.22.75-.59.5-1.05,1.28-1.36,2.34-.32,1.06-.47,2.46-.47,4.2v2.56c0,1.41.18,2.56.56,3.45s.97,1.55,1.81,1.97c.83.43,1.97.64,3.42.64,1.15,0,2.33-.18,3.53-.53,1.2-.35,2.27-.84,3.2-1.47l2.34,6.01c-1.52,1.04-3.07,1.77-4.64,2.2-1.58.43-3.2.64-4.87.64Z"/>
    <path class="cls-2" d="M671.72,325.39v-27.69h8.62v6.67h-.17c.44-2.11,1.21-3.79,2.31-5.03,1.09-1.24,2.62-1.94,4.59-2.09l2.95-.28.61,8.17-5.28.5c-1.26.15-2.27.7-3.03,1.64s-1.14,2.46-1.14,4.53v13.57h-9.45Z"/>
    <path class="cls-2" d="M707.7,326c-3.63,0-6.3-.9-8.01-2.7-1.71-1.8-2.56-4.48-2.56-8.04v-10.9h-4.17v-6.67h4.45v-7.73h8.95v7.73h6.9v6.67h-6.9v10.73c0,1.3.28,2.21.83,2.72.56.52,1.32.78,2.28.78.52,0,1.07-.06,1.67-.19.59-.13,1.08-.27,1.45-.42l1.22,6.73c-.93.44-1.89.77-2.89.97-1,.2-2.08.31-3.23.31Z"/>
    <path class="cls-2" d="M725.05,326c-1.45,0-2.84-.4-4.17-1.2-1.33-.8-2.42-1.88-3.25-3.25-.83-1.37-1.25-2.95-1.25-4.73s.48-3.27,1.45-4.48c.96-1.2,2.41-2.11,4.34-2.73,1.93-.61,4.28-.92,7.06-.92h3.23v4.73h-1.84c-.93,0-1.72.07-2.39.2s-1.22.32-1.67.56c-.45.24-.77.58-.97,1-.2.43-.31.94-.31,1.53,0,.85.28,1.56.83,2.11s1.26.83,2.11.83c.56,0,1.08-.19,1.58-.56.5-.37.91-.9,1.22-1.58.31-.69.47-1.53.47-2.53v-7.62c0-1.26-.32-2.15-.97-2.67-.65-.52-1.64-.78-2.98-.78-1.19,0-2.46.18-3.81.53-1.35.35-2.7.95-4.03,1.81l-2.45-6.12c1.19-.67,2.42-1.22,3.7-1.67,1.28-.45,2.6-.79,3.98-1.03,1.37-.24,2.78-.36,4.23-.36,2.41,0,4.44.43,6.09,1.28,1.65.85,2.92,2.13,3.81,3.84.89,1.71,1.33,3.86,1.33,6.45v16.74h-8.12v-5.39h-.11c-.41,1.26-.91,2.35-1.5,3.25-.59.91-1.34,1.59-2.22,2.06-.89.46-2.02.7-3.39.7Z"/>
    <path class="cls-2" d="M755.19,326c-1.45,0-2.85-.12-4.2-.36-1.35-.24-2.58-.56-3.67-.97-1.09-.41-2.03-.91-2.81-1.5l2-5.89c.85.52,1.73.94,2.64,1.28.91.33,1.81.59,2.7.78s1.7.28,2.45.28c1.19,0,2.12-.2,2.81-.61.69-.41,1.03-1.04,1.03-1.89,0-.67-.19-1.18-.58-1.53-.39-.35-1.03-.6-1.92-.75l-3.62-.5c-2.34-.37-4.11-1.29-5.34-2.75-1.22-1.46-1.84-3.21-1.84-5.25,0-1.82.44-3.41,1.33-4.78.89-1.37,2.2-2.46,3.92-3.25,1.72-.8,3.83-1.2,6.31-1.2,1.26,0,2.46.11,3.59.33,1.13.22,2.17.54,3.11.95.95.41,1.77.91,2.47,1.5l-2.11,5.78c-.59-.41-1.29-.78-2.09-1.11s-1.61-.59-2.45-.78c-.83-.18-1.64-.28-2.42-.28-1.08,0-1.94.21-2.59.64-.65.43-.97,1.01-.97,1.75,0,.63.2,1.14.61,1.53s1.08.64,2,.75l3.39.56c2.45.41,4.27,1.33,5.48,2.78,1.2,1.45,1.81,3.28,1.81,5.51,0,1.82-.45,3.41-1.36,4.78-.91,1.37-2.19,2.42-3.84,3.14-1.65.72-3.61,1.08-5.87,1.08Z"/>
    <path class="cls-2" d="M255.9,384.21v-39.2h16.02c2.45,0,4.54.51,6.28,1.53,1.74,1.02,3.1,2.48,4.06,4.36.96,1.89,1.45,4.17,1.45,6.84s-.48,4.85-1.45,6.76c-.96,1.91-2.32,3.39-4.06,4.45-1.74,1.06-3.84,1.58-6.28,1.58h-6.51v13.68h-9.51ZM265.41,363.14h4.84c1.37,0,2.43-.45,3.17-1.36.74-.91,1.11-2.23,1.11-3.98s-.37-3.03-1.11-3.98c-.74-.95-1.8-1.42-3.17-1.42h-4.84v10.73Z"/>
    <path class="cls-2" d="M295.1,384.82c-1.56,0-2.91-.37-4.06-1.11-1.15-.74-2.03-1.86-2.64-3.36-.61-1.5-.92-3.35-.92-5.53v-18.3h9.34v17.24c0,.93.1,1.66.31,2.2.2.54.49.92.86,1.14.37.22.8.33,1.28.33.63,0,1.2-.18,1.7-.53.5-.35.89-.83,1.17-1.42.28-.59.42-1.3.42-2.11v-16.85h9.34v27.69h-8.73v-4.95c-.63,1.71-1.66,3.06-3.09,4.06s-3.09,1.5-4.98,1.5ZM296.44,353.13l4.5-10.68h8.84l-7.17,10.68h-6.17Z"/>
    <path class="cls-2" d="M333.19,384.82c-1.71,0-3.23-.48-4.56-1.45-1.33-.96-2.35-2.37-3.06-4.23h.33v5.06h-8.73v-39.2h9.29v16.29h-.39c.59-1.67,1.52-2.98,2.78-3.95,1.26-.96,2.73-1.45,4.39-1.45,2.11,0,3.9.6,5.37,1.81,1.46,1.21,2.58,2.88,3.34,5.03.76,2.15,1.14,4.69,1.14,7.62s-.38,5.52-1.14,7.67c-.76,2.15-1.87,3.82-3.34,5-1.46,1.19-3.27,1.78-5.42,1.78ZM330.08,377.87c1.3,0,2.24-.59,2.84-1.78.59-1.19.89-3.1.89-5.73s-.3-4.58-.89-5.73c-.59-1.15-1.54-1.72-2.84-1.72s-2.2.58-2.81,1.72c-.61,1.15-.92,3.06-.92,5.73s.31,4.54.92,5.73c.61,1.19,1.55,1.78,2.81,1.78Z"/>
    <path class="cls-2" d="M356.88,384.82c-3.19,0-5.55-.84-7.09-2.53-1.54-1.69-2.31-4.4-2.31-8.15v-29.14h9.29v28.8c0,.82.08,1.49.25,2.03.17.54.44.95.81,1.22.37.28.85.42,1.45.42.41,0,.8-.03,1.17-.08.37-.06.65-.12.83-.19l.39,6.84c-.74.26-1.5.45-2.28.58-.78.13-1.61.19-2.5.19Z"/>
    <path class="cls-2" d="M364.89,351.63v-8.45h9.51v8.45h-9.51ZM365,384.21v-27.69h9.29v27.69h-9.29Z"/>
    <path class="cls-2" d="M391.75,384.82c-2.74,0-5.09-.58-7.03-1.72-1.95-1.15-3.44-2.81-4.48-4.98-1.04-2.17-1.56-4.75-1.56-7.76s.52-5.58,1.56-7.73c1.04-2.15,2.54-3.81,4.5-4.98,1.97-1.17,4.28-1.75,6.95-1.75,1.67,0,3.27.23,4.81.7,1.54.46,2.79,1.1,3.75,1.92l-2.45,6.56c-.78-.59-1.61-1.07-2.5-1.42-.89-.35-1.76-.53-2.61-.53-1.45,0-2.59.57-3.42,1.7-.83,1.13-1.25,2.99-1.25,5.59s.43,4.39,1.28,5.5c.85,1.11,2,1.67,3.45,1.67.81,0,1.68-.18,2.59-.56.91-.37,1.71-.81,2.42-1.33l2.5,6.51c-.96.82-2.22,1.46-3.75,1.92-1.54.46-3.12.7-4.75.7Z"/>
    <path class="cls-2" d="M411.15,384.82c-1.45,0-2.84-.4-4.17-1.2-1.33-.8-2.42-1.88-3.25-3.25-.83-1.37-1.25-2.95-1.25-4.73s.48-3.27,1.45-4.48c.96-1.2,2.41-2.11,4.34-2.73,1.93-.61,4.28-.92,7.06-.92h3.23v4.73h-1.84c-.93,0-1.72.07-2.39.2s-1.22.32-1.67.56c-.45.24-.77.58-.97,1-.2.43-.31.94-.31,1.53,0,.85.28,1.56.83,2.11s1.26.83,2.11.83c.56,0,1.08-.19,1.58-.56.5-.37.91-.9,1.22-1.58.31-.69.47-1.53.47-2.53v-7.62c0-1.26-.32-2.15-.97-2.67-.65-.52-1.64-.78-2.98-.78-1.19,0-2.46.18-3.81.53-1.35.35-2.7.95-4.03,1.81l-2.45-6.12c1.19-.67,2.42-1.22,3.7-1.67,1.28-.45,2.6-.79,3.98-1.03,1.37-.24,2.78-.36,4.23-.36,2.41,0,4.44.43,6.09,1.28,1.65.85,2.92,2.13,3.81,3.84.89,1.71,1.33,3.86,1.33,6.45v16.74h-8.12v-5.39h-.11c-.41,1.26-.91,2.35-1.5,3.25-.59.91-1.34,1.59-2.22,2.06-.89.46-2.02.7-3.39.7Z"/>
    <path class="cls-2" d="M441.29,384.82c-1.45,0-2.85-.12-4.2-.36-1.35-.24-2.58-.56-3.67-.97s-2.03-.91-2.81-1.5l2-5.89c.85.52,1.73.94,2.64,1.28.91.33,1.81.59,2.7.78s1.7.28,2.45.28c1.19,0,2.12-.2,2.81-.61.69-.41,1.03-1.04,1.03-1.89,0-.67-.19-1.18-.58-1.53-.39-.35-1.03-.6-1.92-.75l-3.62-.5c-2.34-.37-4.11-1.29-5.34-2.75-1.22-1.46-1.84-3.21-1.84-5.25,0-1.82.44-3.41,1.33-4.78.89-1.37,2.2-2.46,3.92-3.25,1.72-.8,3.83-1.2,6.31-1.2,1.26,0,2.46.11,3.59.33,1.13.22,2.17.54,3.11.95.95.41,1.77.91,2.47,1.5l-2.11,5.78c-.59-.41-1.29-.78-2.09-1.11s-1.61-.59-2.45-.78c-.83-.18-1.64-.28-2.42-.28-1.08,0-1.94.21-2.59.64-.65.43-.97,1.01-.97,1.75,0,.63.2,1.14.61,1.53s1.08.64,2,.75l3.39.56c2.45.41,4.27,1.33,5.48,2.78,1.2,1.45,1.81,3.28,1.81,5.51,0,1.82-.45,3.41-1.36,4.78s-2.19,2.42-3.84,3.14c-1.65.72-3.61,1.08-5.87,1.08Z"/>
    <path class="cls-2" d="M487,384.82c-2.56,0-4.87-.45-6.92-1.36-2.06-.91-3.81-2.24-5.25-4s-2.56-3.88-3.34-6.37c-.78-2.48-1.17-5.3-1.17-8.45s.39-5.98,1.17-8.48c.78-2.5,1.9-4.63,3.36-6.39,1.46-1.76,3.21-3.09,5.25-4,2.04-.91,4.34-1.36,6.89-1.36s4.91.45,6.95,1.36c2.04.91,3.78,2.24,5.23,4,1.45,1.76,2.56,3.88,3.34,6.37.78,2.48,1.17,5.3,1.17,8.45s-.39,5.93-1.17,8.45c-.78,2.52-1.89,4.66-3.34,6.42-1.45,1.76-3.19,3.1-5.23,4-2.04.91-4.36,1.36-6.95,1.36ZM487.05,376.76c1.52,0,2.78-.45,3.78-1.36,1-.91,1.76-2.27,2.28-4.09s.78-4.06.78-6.73-.25-4.96-.75-6.76-1.26-3.14-2.28-4.03c-1.02-.89-2.29-1.34-3.81-1.34s-2.8.45-3.84,1.36c-1.04.91-1.81,2.26-2.31,4.06-.5,1.8-.75,4.05-.75,6.76s.25,4.9.75,6.7c.5,1.8,1.27,3.15,2.31,4.06,1.04.91,2.32,1.36,3.84,1.36Z"/>
    <path class="cls-2" d="M508.85,394.22v-37.7h8.73v5.06h-.17c.59-1.85,1.51-3.26,2.75-4.23,1.24-.96,2.81-1.45,4.7-1.45,2.11,0,3.91.59,5.39,1.78,1.48,1.19,2.6,2.86,3.36,5,.76,2.15,1.14,4.71,1.14,7.67s-.38,5.42-1.14,7.59c-.76,2.17-1.85,3.86-3.28,5.06-1.43,1.2-3.22,1.81-5.37,1.81-1.89,0-3.42-.48-4.59-1.45s-2.01-2.3-2.53-4h.28v14.85h-9.29ZM521.75,377.87c1.33,0,2.29-.65,2.86-1.95.57-1.3.86-3.15.86-5.56s-.29-4.39-.86-5.62-1.53-1.84-2.86-1.84-2.29.62-2.86,1.86-.86,3.11-.86,5.59.29,4.26.86,5.56c.57,1.3,1.53,1.95,2.86,1.95Z"/>
    <path class="cls-2" d="M551.34,384.82c-3.63,0-6.3-.9-8.01-2.7-1.71-1.8-2.56-4.48-2.56-8.04v-10.9h-4.17v-6.67h4.45v-7.73h8.95v7.73h6.9v6.67h-6.9v10.73c0,1.3.28,2.21.83,2.72.56.52,1.32.78,2.28.78.52,0,1.07-.06,1.67-.19.59-.13,1.08-.27,1.45-.42l1.22,6.73c-.93.44-1.89.77-2.89.97-1,.2-2.08.31-3.23.31Z"/>
    <path class="cls-2" d="M560.73,351.63v-8.45h9.51v8.45h-9.51ZM560.84,384.21v-27.69h9.29v27.69h-9.29Z"/>
    <path class="cls-2" d="M575.58,384.21v-27.69h8.62v5.06h-.11c.45-1.19,1.07-2.2,1.86-3.03.8-.83,1.71-1.48,2.75-1.95,1.04-.46,2.19-.7,3.45-.7,1.82,0,3.32.46,4.5,1.39,1.19.93,2,2.22,2.45,3.89h-.17c.52-1.56,1.48-2.83,2.89-3.81,1.41-.98,3.13-1.47,5.17-1.47,1.63,0,3.01.38,4.14,1.14,1.13.76,1.99,1.89,2.59,3.39s.89,3.38.89,5.64v18.13h-9.29v-17.35c0-1.34-.19-2.26-.58-2.78s-.97-.78-1.75-.78c-.63,0-1.2.17-1.7.5-.5.33-.9.8-1.2,1.39-.3.59-.45,1.28-.45,2.06v16.96h-9.18v-17.35c0-1.3-.21-2.22-.64-2.75-.43-.54-.99-.81-1.7-.81-.67,0-1.24.18-1.72.53-.48.35-.87.83-1.17,1.42-.3.59-.44,1.26-.44,2v16.96h-9.23Z"/>
    <path class="cls-2" d="M619.84,351.63v-8.45h9.51v8.45h-9.51ZM619.95,384.21v-27.69h9.29v27.69h-9.29Z"/>
    <path class="cls-2" d="M634.19,384.21v-6.12l11.57-17.13-.17,2.34h-11.4v-6.78h19.91v6.01l-11.79,17.07.11-2.17h12.18v6.78h-20.41Z"/>
    <path class="cls-2" d="M666.33,384.82c-1.45,0-2.84-.4-4.17-1.2-1.33-.8-2.42-1.88-3.25-3.25-.83-1.37-1.25-2.95-1.25-4.73s.48-3.27,1.45-4.48c.96-1.2,2.41-2.11,4.34-2.73,1.93-.61,4.28-.92,7.06-.92h3.23v4.73h-1.84c-.93,0-1.72.07-2.39.2s-1.22.32-1.67.56c-.45.24-.77.58-.97,1-.2.43-.31.94-.31,1.53,0,.85.28,1.56.83,2.11s1.26.83,2.11.83c.56,0,1.08-.19,1.58-.56.5-.37.91-.9,1.22-1.58.31-.69.47-1.53.47-2.53v-7.62c0-1.26-.32-2.15-.97-2.67-.65-.52-1.64-.78-2.98-.78-1.19,0-2.46.18-3.81.53-1.35.35-2.7.95-4.03,1.81l-2.45-6.12c1.19-.67,2.42-1.22,3.7-1.67,1.28-.45,2.6-.79,3.98-1.03,1.37-.24,2.78-.36,4.23-.36,2.41,0,4.44.43,6.09,1.28,1.65.85,2.92,2.13,3.81,3.84.89,1.71,1.33,3.86,1.33,6.45v16.74h-8.12v-5.39h-.11c-.41,1.26-.91,2.35-1.5,3.25-.59.91-1.34,1.59-2.22,2.06-.89.46-2.02.7-3.39.7Z"/>
    <path class="cls-2" d="M695.85,384.82c-2.15,0-3.96-.59-5.42-1.78-1.47-1.19-2.58-2.85-3.34-5s-1.14-4.71-1.14-7.67.38-5.47,1.14-7.62,1.87-3.83,3.34-5.03c1.46-1.2,3.23-1.81,5.31-1.81,1.93,0,3.48.48,4.64,1.45,1.17.96,1.99,2.28,2.47,3.95h-.28v-16.29h9.29v39.2h-8.73v-5.06h.17c-.56,1.85-1.46,3.26-2.7,4.23-1.24.96-2.83,1.45-4.75,1.45ZM698.97,377.87c1.33,0,2.29-.64,2.86-1.92.57-1.28.86-3.14.86-5.59s-.29-4.35-.86-5.59c-.58-1.24-1.53-1.86-2.86-1.86s-2.29.62-2.86,1.86c-.58,1.24-.86,3.11-.86,5.59s.29,4.31.86,5.59c.57,1.28,1.53,1.92,2.86,1.92Z"/>
    <path class="cls-2" d="M725.05,384.82c-1.45,0-2.84-.4-4.17-1.2-1.33-.8-2.42-1.88-3.25-3.25-.83-1.37-1.25-2.95-1.25-4.73s.48-3.27,1.45-4.48c.96-1.2,2.41-2.11,4.34-2.73,1.93-.61,4.28-.92,7.06-.92h3.23v4.73h-1.84c-.93,0-1.72.07-2.39.2s-1.22.32-1.67.56c-.45.24-.77.58-.97,1-.2.43-.31.94-.31,1.53,0,.85.28,1.56.83,2.11s1.26.83,2.11.83c.56,0,1.08-.19,1.58-.56.5-.37.91-.9,1.22-1.58.31-.69.47-1.53.47-2.53v-7.62c0-1.26-.32-2.15-.97-2.67-.65-.52-1.64-.78-2.98-.78-1.19,0-2.46.18-3.81.53-1.35.35-2.7.95-4.03,1.81l-2.45-6.12c1.19-.67,2.42-1.22,3.7-1.67,1.28-.45,2.6-.79,3.98-1.03,1.37-.24,2.78-.36,4.23-.36,2.41,0,4.44.43,6.09,1.28,1.65.85,2.92,2.13,3.81,3.84.89,1.71,1.33,3.86,1.33,6.45v16.74h-8.12v-5.39h-.11c-.41,1.26-.91,2.35-1.5,3.25-.59.91-1.34,1.59-2.22,2.06-.89.46-2.02.7-3.39.7Z"/>
    <path class="cls-2" d="M755.19,384.82c-1.45,0-2.85-.12-4.2-.36-1.35-.24-2.58-.56-3.67-.97s-2.03-.91-2.81-1.5l2-5.89c.85.52,1.73.94,2.64,1.28.91.33,1.81.59,2.7.78s1.7.28,2.45.28c1.19,0,2.12-.2,2.81-.61.69-.41,1.03-1.04,1.03-1.89,0-.67-.19-1.18-.58-1.53-.39-.35-1.03-.6-1.92-.75l-3.62-.5c-2.34-.37-4.11-1.29-5.34-2.75-1.22-1.46-1.84-3.21-1.84-5.25,0-1.82.44-3.41,1.33-4.78.89-1.37,2.2-2.46,3.92-3.25,1.72-.8,3.83-1.2,6.31-1.2,1.26,0,2.46.11,3.59.33,1.13.22,2.17.54,3.11.95.95.41,1.77.91,2.47,1.5l-2.11,5.78c-.59-.41-1.29-.78-2.09-1.11s-1.61-.59-2.45-.78c-.83-.18-1.64-.28-2.42-.28-1.08,0-1.94.21-2.59.64-.65.43-.97,1.01-.97,1.75,0,.63.2,1.14.61,1.53s1.08.64,2,.75l3.39.56c2.45.41,4.27,1.33,5.48,2.78,1.2,1.45,1.81,3.28,1.81,5.51,0,1.82-.45,3.41-1.36,4.78s-2.19,2.42-3.84,3.14c-1.65.72-3.61,1.08-5.87,1.08Z"/>
  </g>
</svg>